<?xml version="1.0" encoding="UTF-8"?>
<!DOCTYPE svg PUBLIC "-//W3C//DTD SVG 1.1//EN" "http://www.w3.org/Graphics/SVG/1.1/DTD/svg11.dtd">
<!-- Creator: CorelDRAW -->
<svg xmlns="http://www.w3.org/2000/svg" xml:space="preserve" width="1.5104in" height="0.427079in" version="1.1" style="shape-rendering:geometricPrecision; text-rendering:geometricPrecision; image-rendering:optimizeQuality; fill-rule:evenodd; clip-rule:evenodd"
viewBox="0 0 466.01 131.77"
 xmlns:xlink="http://www.w3.org/1999/xlink"
 xmlns:xodm="http://www.corel.com/coreldraw/odm/2003">
 <defs>
  <style type="text/css">
   <![CDATA[
    .str0 {stroke:#F39318;stroke-width:3.21;stroke-miterlimit:2.61313}
    .fil0 {fill:none;fill-rule:nonzero}
    .fil4 {fill:#F79638;fill-rule:nonzero}
    .fil3 {fill:#EA363D;fill-rule:nonzero}
    .fil2 {fill:#339E53;fill-rule:nonzero}
    .fil1 {fill:#F39318;fill-rule:nonzero}
   ]]>
  </style>
 </defs>
 <g id="Layer_x0020_1">
  <metadata id="CorelCorpID_0Corel-Layer"/>
  <rect class="fil0" y="0" width="466.01" height="131.77"/>
  <g id="_2262427078976">
   <line class="fil0 str0" x1="222.19" y1="32.14" x2="222.19" y2= "96.42" />
   <path class="fil1" d="M256.97 83.56l0 -35.06 4.25 0 0 31.29 16.3 0 0 3.77 -20.54 0zm27.12 0l0 -35.06 21.16 0 0 3.77 -16.91 0 0 11.85 15.82 0 0 3.76 -15.82 0 0 11.91 17.19 0 0 3.77 -21.43 0zm30.25 0l-4.45 0 12.87 -35.06 4.38 0 12.87 35.06 -4.45 0 -10.48 -29.51 -0.27 0 -10.48 29.51zm1.64 -13.7l17.94 0 0 3.77 -17.94 0 0 -3.77zm40.32 13.7l-10.82 0 0 -35.06 11.3 0c3.4,0 6.31,0.7 8.73,2.11 2.42,1.39 4.27,3.4 5.57,6.01 1.29,2.6 1.93,5.72 1.93,9.35 0,3.65 -0.65,6.8 -1.95,9.43 -1.3,2.62 -3.19,4.64 -5.68,6.06 -2.49,1.4 -5.51,2.11 -9.07,2.11zm-6.58 -3.77l6.3 0c2.9,0 5.3,-0.56 7.21,-1.68 1.91,-1.12 3.33,-2.71 4.26,-4.78 0.94,-2.06 1.41,-4.52 1.41,-7.38 0,-2.83 -0.46,-5.27 -1.39,-7.31 -0.93,-2.05 -2.31,-3.63 -4.15,-4.73 -1.84,-1.11 -4.12,-1.66 -6.86,-1.66l-6.78 0 0 27.53zm49.58 -22.53c-0.21,-1.73 -1.04,-3.08 -2.5,-4.04 -1.46,-0.96 -3.26,-1.44 -5.38,-1.44 -1.55,0 -2.91,0.25 -4.08,0.75 -1.15,0.5 -2.05,1.19 -2.7,2.07 -0.64,0.88 -0.96,1.88 -0.96,3 0,0.94 0.22,1.74 0.67,2.41 0.46,0.66 1.04,1.22 1.75,1.66 0.71,0.43 1.45,0.79 2.23,1.08 0.77,0.27 1.49,0.5 2.14,0.67l3.56 0.96c0.91,0.24 1.93,0.57 3.05,0.99 1.13,0.42 2.21,1 3.24,1.73 1.04,0.72 1.89,1.64 2.57,2.77 0.67,1.13 1.01,2.52 1.01,4.16 0,1.89 -0.5,3.61 -1.49,5.14 -0.98,1.53 -2.42,2.75 -4.31,3.65 -1.88,0.9 -4.17,1.35 -6.87,1.35 -2.51,0 -4.69,-0.41 -6.52,-1.22 -1.83,-0.81 -3.27,-1.94 -4.32,-3.39 -1.04,-1.45 -1.63,-3.13 -1.76,-5.05l4.38 0c0.12,1.32 0.56,2.42 1.34,3.29 0.79,0.86 1.78,1.49 2.98,1.92 1.21,0.41 2.51,0.62 3.9,0.62 1.62,0 3.08,-0.26 4.37,-0.79 1.29,-0.54 2.31,-1.28 3.07,-2.23 0.75,-0.96 1.13,-2.08 1.13,-3.35 0,-1.16 -0.32,-2.11 -0.97,-2.84 -0.65,-0.73 -1.51,-1.32 -2.57,-1.78 -1.06,-0.46 -2.21,-0.86 -3.44,-1.2l-4.31 -1.23c-2.74,-0.79 -4.91,-1.91 -6.5,-3.37 -1.6,-1.46 -2.4,-3.37 -2.4,-5.74 0,-1.96 0.53,-3.67 1.59,-5.14 1.07,-1.47 2.51,-2.61 4.32,-3.42 1.81,-0.82 3.84,-1.23 6.08,-1.23 2.26,0 4.27,0.4 6.03,1.22 1.75,0.8 3.15,1.89 4.17,3.29 1.04,1.39 1.59,2.97 1.65,4.74l-4.11 0z"/>
   <g>
    <path class="fil2" d="M145.46 29.67c0,2.19 0,4.38 0,6.55 0.32,0.08 0.39,-0.13 0.52,-0.24 0.37,-0.3 0.71,-0.65 1.11,-0.91 1.61,-1.05 3.46,-0.31 3.88,1.55 0.11,0.49 0.15,0.98 0.15,1.48 -0,1.42 -0.01,2.85 0.01,4.27 0.01,0.73 0.08,1.44 1.05,1.55 0.12,0.01 0.24,0.08 0.23,0.21 -0.02,0.22 -0.21,0.22 -0.36,0.22 -1.26,0.01 -2.52,0.01 -3.78,0 -0.16,0 -0.36,0 -0.38,-0.2 -0.02,-0.21 0.19,-0.21 0.35,-0.24 0.94,-0.21 1.06,-0.34 1.06,-1.25 0.01,-1.56 0.01,-3.12 -0.01,-4.68 -0,-0.34 -0.05,-0.68 -0.13,-1 -0.19,-0.72 -0.74,-1.08 -1.48,-1.02 -1.22,0.1 -2.18,1.11 -2.18,2.31 0,1.38 -0,2.76 0,4.13 0,1.08 0.09,1.18 1.14,1.51 0.13,0.04 0.29,0.07 0.28,0.24 -0.01,0.17 -0.18,0.2 -0.31,0.2 -1.33,0.01 -2.65,0.01 -3.98,0.01 -0.14,-0 -0.3,-0.02 -0.31,-0.2 -0.01,-0.17 0.14,-0.2 0.27,-0.25 1.02,-0.35 1.08,-0.43 1.08,-1.49 0,-3.25 0,-6.51 -0,-9.76 0,-0.25 -0.01,-0.5 -0.05,-0.74 -0.08,-0.48 -0.32,-0.79 -0.89,-0.71 -0.19,0.03 -0.45,0.14 -0.51,-0.15 -0.06,-0.26 0.22,-0.3 0.39,-0.39 0.71,-0.37 1.52,-0.52 2.18,-0.98 0.23,0 0.46,0 0.69,0z"/>
    <path class="fil2" d="M131.17 29.67c0.13,0.09 0.26,0.18 0.38,0.28 0.52,0.47 0.55,1.07 0.1,1.54 -0.42,0.44 -1.08,0.46 -1.52,0.04 -0.45,-0.42 -0.45,-1.1 -0,-1.57 0.11,-0.11 0.24,-0.2 0.36,-0.31 0.23,0 0.46,0 0.69,0z"/>
    <path class="fil3" d="M67.21 72.51c-0.12,7.3 5.89,14.14 14.31,14.13 8.22,-0.01 14.26,-6.58 14.29,-14.06 0.03,-7.62 -6.08,-14.16 -14.28,-14.19 -8.44,-0.02 -14.44,6.84 -14.32,14.12zm0.1 13.06c-0.15,0.32 -0.09,0.56 -0.09,0.79 -0,6.9 -0,13.8 -0,20.69 0,0.86 -0,0.86 -0.87,0.86 -1.19,0 -2.39,-0.02 -3.58,0.01 -0.49,0.01 -0.64,-0.18 -0.64,-0.65 0.01,-11.92 -0.06,-23.84 0.05,-35.76 0.04,-4.56 1.91,-8.55 5.02,-11.92 3.24,-3.51 7.3,-5.56 12.07,-6.1 5.49,-0.61 10.42,0.86 14.67,4.35 3.62,2.97 5.87,6.78 6.65,11.37 1,5.95 -0.5,11.28 -4.49,15.86 -3.06,3.51 -6.96,5.63 -11.58,6.33 -5.74,0.87 -10.89,-0.58 -15.41,-4.19 -0.62,-0.5 -1.18,-1.06 -1.8,-1.66z"/>
    <path class="fil2" d="M129.81 72.26c0.06,4.26 1.64,7.86 4.83,10.76 4.59,4.17 11.77,4.79 17,1.46 5.56,-3.54 8,-9.96 6.21,-16.32 -1.98,-7.03 -9.22,-11.45 -16.44,-10.06 -6.85,1.32 -11.71,7.44 -11.61,14.16zm28.63 13.14c-0.79,0.68 -1.38,1.34 -2.07,1.9 -3.01,2.43 -6.42,3.91 -10.3,4.28 -6.12,0.57 -11.37,-1.35 -15.68,-5.62 -3.19,-3.17 -5.05,-7.04 -5.51,-11.5 -0.66,-6.38 1.3,-11.89 5.94,-16.38 3.09,-2.99 6.85,-4.71 11.17,-5.19 10.76,-1.19 19.95,6.61 21.3,16.63 0.13,0.97 0.21,1.94 0.21,2.91 -0.01,5.63 -0,11.26 -0,16.89 0,0.8 -0,0.8 -0.8,0.8 -1.19,0 -2.39,-0.02 -3.58,0.01 -0.5,0.01 -0.69,-0.15 -0.68,-0.67 0.03,-1.3 0.01,-2.61 0.01,-4.07z"/>
    <path class="fil4" d="M115.52 74.47c-1.81,0 -3.61,-0 -5.42,0 -0.71,0 -0.71,0 -0.59,0.66 1.08,5.7 5.71,10.43 11.43,11.64 0.56,0.12 0.77,0.33 0.75,0.9 -0.04,1.23 -0.03,2.46 -0,3.7 0.01,0.48 -0.11,0.65 -0.64,0.56 -3.78,-0.67 -7.12,-2.25 -9.96,-4.8 -3.77,-3.37 -5.99,-7.58 -6.51,-12.58 -0.61,-5.9 1.13,-11.09 5.19,-15.48 3.04,-3.29 6.81,-5.3 11.26,-6.1 0.5,-0.09 0.68,0.02 0.67,0.53 -0.02,1.16 -0.02,2.32 0,3.48 0.01,0.45 -0.14,0.63 -0.6,0.74 -5.95,1.49 -9.78,5.14 -11.42,11 -0.21,0.74 -0.19,0.75 0.62,0.75 3.54,0 7.08,-0 10.62,0 0.77,0 0.77,0.01 0.78,0.77 0,1.18 -0.02,2.35 0.01,3.53 0.01,0.52 -0.15,0.71 -0.7,0.7 -1.83,-0.03 -3.65,-0.01 -5.48,-0.01z"/>
    <path class="fil4" d="M167.38 79.83c0,-2.87 -0,-5.74 0,-8.61 0.02,-9.92 7.4,-18.26 17.35,-19.61 0.68,-0.09 1.37,-0.17 2.06,-0.15 0.35,0.01 0.51,0.14 0.51,0.49 -0,1.23 -0.01,2.46 0,3.7 0,0.4 -0.21,0.48 -0.56,0.5 -4.12,0.18 -7.63,1.72 -10.47,4.67 -1.92,1.99 -3.17,4.35 -3.76,7.04 -0.06,0.28 -0.06,0.59 -0.06,0.88 -0,6.84 -0,13.69 -0,20.53 0,0.87 -0,0.87 -0.9,0.87 -1.16,0 -2.31,-0.02 -3.47,0.01 -0.54,0.01 -0.7,-0.18 -0.7,-0.7 0.02,-3.2 0.01,-6.4 0.01,-9.6z"/>
    <path class="fil3" d="M195.73 45.36c0,2.8 0,5.59 0,8.39 -0,0.73 -0.01,0.74 -0.75,0.74 -1.23,0 -2.46,-0.02 -3.69,0.01 -0.5,0.01 -0.64,-0.18 -0.64,-0.65 0.01,-5.68 0.01,-11.37 -0,-17.05 0,-0.51 0.17,-0.68 0.68,-0.67 1.25,0.03 2.5,0.03 3.74,0 0.52,-0.01 0.67,0.18 0.67,0.68 -0.02,2.85 -0.01,5.7 -0.01,8.55z"/>
    <path class="fil2" d="M195.72 81.62c0,2.57 0,5.15 -0,7.72 0,0.78 -0,0.78 -0.82,0.79 -1.19,0 -2.38,-0.01 -3.57,0.01 -0.47,0.01 -0.67,-0.16 -0.67,-0.64 0.01,-5.24 0.01,-10.48 -0,-15.72 -0,-0.52 0.22,-0.66 0.71,-0.66 1.23,0.02 2.46,0.02 3.69,-0 0.5,-0.01 0.68,0.16 0.68,0.67 -0.02,2.61 -0.01,5.22 -0.01,7.83z"/>
    <path class="fil4" d="M195.72 63.84c0,2.46 -0.01,4.93 0.01,7.39 0,0.52 -0.14,0.72 -0.69,0.71 -1.25,-0.03 -2.5,-0.02 -3.74,-0 -0.44,0.01 -0.64,-0.13 -0.64,-0.59 0.01,-5.04 0.01,-10.07 0,-15.11 0,-0.44 0.19,-0.57 0.61,-0.57 1.28,0.02 2.57,0.02 3.85,-0 0.47,-0.01 0.61,0.18 0.61,0.62 -0.01,2.52 -0.01,5.04 -0.01,7.56z"/>
    <path class="fil2" d="M109.79 37.75c0,1.73 -0.04,3.46 0.02,5.19 0.03,0.66 0.63,0.87 1.24,0.95 0.2,0.03 0.56,-0.06 0.53,0.26 -0.03,0.28 -0.37,0.19 -0.58,0.2 -1.58,0.01 -3.16,0.01 -4.74,-0 -0.2,-0 -0.54,0.09 -0.54,-0.23 0,-0.26 0.31,-0.19 0.5,-0.22 0.99,-0.11 1.2,-0.3 1.34,-1.29 0.05,-0.38 0.08,-0.76 0.08,-1.15 0.01,-2.71 0,-5.42 0,-8.13 0,-0.29 -0,-0.59 -0.03,-0.88 -0.14,-1.3 -0.17,-1.32 -1.48,-1.63 -0.17,-0.04 -0.43,-0 -0.42,-0.24 0.01,-0.29 0.3,-0.23 0.49,-0.23 1.65,-0.01 3.3,-0 4.94,0 0.18,0 0.43,-0.02 0.46,0.2 0.04,0.25 -0.23,0.23 -0.39,0.27 -1.39,0.34 -1.45,0.41 -1.45,1.83 -0.01,1.38 -0,2.75 -0,4.31 0.69,-0.61 1.27,-1.1 1.82,-1.62 1.03,-0.97 2.09,-1.9 2.99,-2.99 0.75,-0.92 0.67,-1.15 -0.41,-1.52 -0.13,-0.04 -0.29,-0.05 -0.29,-0.23 0,-0.22 0.19,-0.24 0.35,-0.24 1.49,-0.01 2.97,-0.01 4.46,-0 0.16,0 0.34,0.04 0.34,0.25 -0.01,0.2 -0.19,0.25 -0.34,0.27 -1.08,0.15 -1.88,0.81 -2.62,1.51 -1.31,1.23 -2.56,2.52 -3.85,3.77 -0.25,0.25 -0.44,0.46 -0.09,0.78 2.06,1.95 3.97,4.07 6.15,5.9 0.84,0.71 1.84,1.09 2.97,1.04 0.78,-0.04 1.13,-0.37 1.14,-1.14 0.02,-1.88 0.01,-3.75 -0,-5.63 -0.01,-0.83 -0.22,-1.01 -1.07,-1 -0.14,0 -0.29,0.05 -0.35,-0.11 -0.08,-0.2 0.07,-0.3 0.22,-0.36 0.82,-0.34 1.65,-0.68 2.48,-1 0.37,-0.14 0.57,0.04 0.57,0.42 0,0.42 0,0.84 0,1.45 0.34,-0.45 0.55,-0.76 0.8,-1.04 0.68,-0.79 1.54,-1.05 2.24,-0.71 0.63,0.3 0.87,0.98 0.56,1.54 -0.26,0.47 -0.81,0.57 -1.38,0.29 -0.36,-0.18 -0.67,-0.7 -1.14,-0.37 -0.55,0.39 -1.01,0.95 -1.04,1.61 -0.07,1.58 -0.04,3.16 -0,4.74 0.02,0.66 0.33,1.17 1.08,1.3 0.18,0.03 0.49,-0.01 0.43,0.29 -0.05,0.25 -0.34,0.18 -0.53,0.18 -1.53,0.01 -3.07,0 -4.6,0 -1.92,0 -3.85,0 -5.77,-0 -0.21,0 -0.54,0.09 -0.6,-0.18 -0.07,-0.33 0.31,-0.24 0.49,-0.33 0.53,-0.25 0.65,-0.68 0.25,-1.15 -0.36,-0.43 -0.79,-0.82 -1.19,-1.22 -1.26,-1.27 -2.53,-2.54 -3.79,-3.82 -0.07,0.03 -0.13,0.07 -0.2,0.1z"/>
    <path class="fil2" d="M157.02 37.8c0,0 0,0 0,0 0.48,0 0.96,0.01 1.44,-0 0.71,-0.01 0.84,-0.19 0.65,-0.87 -0.25,-0.92 -1.15,-1.57 -2.03,-1.49 -0.99,0.09 -1.92,0.98 -2.05,1.91 -0.05,0.35 0.13,0.44 0.42,0.45 0.52,0 1.05,0 1.57,0zm1.19 0.71c-0.89,0 -1.78,0 -2.68,-0 -0.34,-0 -0.58,0.09 -0.58,0.49 0,1.86 1.4,4.03 3.63,3.84 1.12,-0.09 1.8,-0.67 2.26,-1.61 0.09,-0.18 0.13,-0.53 0.42,-0.43 0.32,0.11 0.18,0.43 0.11,0.65 -0.48,1.57 -1.76,3.37 -4.19,3.18 -1.86,-0.15 -3.51,-1.72 -3.74,-3.83 -0.21,-1.91 -0.07,-3.78 1.55,-5.17 1.25,-1.07 2.7,-1.33 4.23,-0.76 1.35,0.51 2.07,1.56 2.24,2.99 0.06,0.5 -0.11,0.66 -0.58,0.65 -0.89,-0.01 -1.78,-0 -2.68,-0 0,0 0,0 0,0z"/>
    <path class="fil2" d="M140.54 36.3c0,0.29 0.02,0.59 -0.01,0.88 -0.02,0.22 0.14,0.57 -0.21,0.62 -0.28,0.04 -0.29,-0.3 -0.37,-0.5 -0.13,-0.36 -0.27,-0.72 -0.49,-1.04 -0.56,-0.83 -1.76,-1.18 -2.68,-0.79 -0.82,0.35 -1.01,1.26 -0.41,1.97 0.34,0.41 0.81,0.66 1.28,0.89 0.71,0.36 1.46,0.64 2.14,1.07 1.23,0.79 1.72,1.94 1.36,3.18 -0.32,1.08 -1.56,1.97 -2.82,2.02 -0.69,0.03 -1.37,-0.02 -2.04,-0.19 -0.29,-0.07 -0.6,-0.17 -0.88,-0.08 -0.56,0.2 -0.69,-0.05 -0.69,-0.54 0.01,-0.72 -0,-1.44 0.01,-2.17 0,-0.19 -0.06,-0.46 0.22,-0.49 0.24,-0.03 0.26,0.22 0.31,0.39 0.16,0.47 0.36,0.93 0.67,1.33 0.64,0.83 1.49,1.17 2.53,1.02 0.57,-0.08 0.95,-0.43 1.12,-0.97 0.18,-0.61 -0.05,-1.12 -0.5,-1.52 -0.44,-0.4 -0.97,-0.67 -1.5,-0.95 -0.55,-0.28 -1.11,-0.55 -1.62,-0.88 -1.21,-0.8 -1.58,-1.97 -1.07,-3.25 0.46,-1.14 1.7,-1.85 2.99,-1.69 0.43,0.05 0.85,0.18 1.27,0.26 0.27,0.06 0.55,0.13 0.79,-0.06 0.48,-0.38 0.58,-0.13 0.59,0.32 0,0.38 0,0.77 0,1.15z"/>
    <path class="fil2" d="M131.76 38.81c0,1.15 -0.03,2.3 0.01,3.45 0.03,0.77 0.04,1.6 1.16,1.65 0.12,0.01 0.23,0.09 0.21,0.22 -0.04,0.2 -0.23,0.2 -0.38,0.2 -0.96,0.01 -1.92,0.01 -2.88,0.01 -0.32,0 -0.64,-0 -0.96,-0.02 -0.13,-0.01 -0.29,-0.03 -0.28,-0.22 0.01,-0.14 0.13,-0.19 0.24,-0.2 0.92,-0.08 1.06,-0.71 1.06,-1.45 -0.01,-1.69 0,-3.39 -0.01,-5.08 -0.01,-1.09 -0.07,-1.14 -1.14,-1.23 -0.12,-0.01 -0.23,-0.03 -0.28,-0.15 -0.07,-0.16 0.03,-0.28 0.16,-0.33 0.87,-0.35 1.73,-0.72 2.61,-1.03 0.43,-0.15 0.49,0.18 0.49,0.51 -0,1.22 0,2.44 0,3.66 0,0 0,0 0.01,0z"/>
    <path class="fil2" d="M159.5 30.06c0.28,0.06 0.75,-0.17 0.91,0.13 0.17,0.33 -0.3,0.55 -0.5,0.8 -0.64,0.79 -1.32,1.55 -1.99,2.32 -0.13,0.15 -0.28,0.37 -0.51,0.25 -0.24,-0.13 -0.08,-0.37 -0.03,-0.55 0.17,-0.61 0.36,-1.21 0.54,-1.81 0.35,-1.13 0.35,-1.13 1.57,-1.13z"/>
   </g>
  </g>
 </g>
</svg>
